<?xml version="1.0" standalone="no"?>
<!DOCTYPE svg PUBLIC "-//W3C//DTD SVG 20010904//EN"
 "http://www.w3.org/TR/2001/REC-SVG-20010904/DTD/svg10.dtd">
<svg version="1.0" xmlns="http://www.w3.org/2000/svg"
 width="500.000000pt" height="500.000000pt" viewBox="0 0 500.000000 500.000000"
 preserveAspectRatio="xMidYMid meet">

<g transform="translate(0.000000,500.000000) scale(0.100000,-0.100000)"
fill="#000000" stroke="none">
<path d="M830 3794 c-6 -14 -10 -81 -10 -150 l0 -124 -98 0 c-63 0 -102 -4
-110 -12 -9 -9 -12 -251 -12 -1030 0 -996 0 -1018 19 -1028 13 -7 276 -10 783
-10 l763 -1 89 -104 c105 -123 155 -155 246 -155 87 0 141 32 235 141 44 50
84 97 88 105 7 12 129 14 773 14 508 0 772 3 785 10 19 10 19 32 19 1028 0
779 -3 1021 -12 1030 -8 8 -47 12 -109 12 l-97 0 -4 140 c-2 112 -6 143 -18
150 -9 6 -281 10 -685 10 -722 0 -728 -1 -818 -53 -42 -25 -122 -103 -145
-142 -12 -20 -12 -20 -24 0 -23 39 -103 117 -145 142 -90 52 -95 53 -826 53
l-677 0 -10 -26z m1450 -92 c55 -29 94 -65 128 -117 52 -82 52 -69 52 -1067 0
-511 -2 -928 -4 -928 -2 0 -32 28 -68 63 -111 108 -59 102 -820 105 l-658 3 0
985 0 984 663 -2 662 -3 45 -23z m1810 -957 l0 -984 -658 -3 -657 -3 -67 -33
c-42 -21 -83 -51 -111 -82 -25 -28 -48 -50 -51 -50 -4 0 -5 429 -4 953 l3 952
22 47 c32 69 90 127 158 160 l60 28 653 0 652 0 0 -985z m-3270 -174 c0 -803
1 -860 18 -880 17 -21 19 -21 697 -23 l680 -3 48 -23 c35 -18 68 -50 130 -125
64 -78 89 -102 107 -102 19 0 43 23 105 100 60 73 93 106 130 125 l49 25 681
3 c678 2 680 2 698 23 16 20 17 77 17 880 l0 859 70 0 70 0 0 -950 0 -950
-745 0 c-620 0 -751 -2 -773 -14 -15 -8 -57 -49 -94 -93 -111 -131 -130 -146
-190 -151 -29 -2 -65 1 -80 7 -15 5 -70 59 -123 119 -53 60 -108 115 -121 121
-18 8 -243 11 -769 11 l-745 0 0 950 0 950 70 0 70 0 0 -859z"/>
<path d="M1180 3466 c-6 -8 -10 -25 -8 -38 l3 -23 506 -3 c446 -2 508 0 519
13 10 12 10 21 2 40 l-12 25 -499 0 c-422 0 -500 -2 -511 -14z"/>
<path d="M1174 3186 c-3 -8 -4 -25 -2 -38 l3 -23 508 -3 507 -2 12 25 c8 19 8
28 -2 40 -11 13 -76 15 -517 15 -427 0 -504 -2 -509 -14z"/>
<path d="M1182 2918 c-15 -15 -15 -51 0 -66 9 -9 135 -12 503 -12 464 0 493 1
508 18 22 24 21 35 -1 55 -17 15 -67 17 -508 17 -368 0 -493 -3 -502 -12z"/>
<path d="M1177 2643 c-4 -3 -7 -19 -7 -35 0 -22 6 -31 26 -39 17 -6 202 -9
505 -7 436 3 480 5 495 20 15 14 16 22 6 43 l-12 25 -503 0 c-277 0 -507 -3
-510 -7z"/>
<path d="M1177 2363 c-11 -11 -8 -48 5 -61 9 -9 136 -12 510 -12 l498 0 12 25
c8 19 8 28 -2 40 -11 13 -76 15 -515 15 -276 0 -505 -3 -508 -7z"/>
<path d="M1182 2088 c-15 -15 -15 -51 0 -66 9 -9 135 -12 503 -12 464 0 493 1
508 18 22 24 21 35 -1 55 -17 15 -67 17 -508 17 -368 0 -493 -3 -502 -12z"/>
<path d="M2802 3468 c-16 -16 -15 -43 2 -57 9 -8 153 -10 517 -9 l504 3 3 23
c8 53 19 52 -517 52 -373 0 -500 -3 -509 -12z"/>
<path d="M2802 3188 c-15 -15 -15 -41 0 -56 9 -9 136 -12 509 -12 536 0 525
-1 517 52 l-3 23 -505 3 c-385 2 -509 -1 -518 -10z"/>
<path d="M2806 2914 c-9 -8 -16 -22 -16 -29 0 -7 7 -21 16 -29 14 -14 74 -16
508 -16 518 0 516 0 516 45 0 45 2 45 -516 45 -434 0 -494 -2 -508 -16z"/>
<path d="M2798 2624 c-11 -23 -10 -29 11 -45 22 -18 48 -19 496 -19 284 0 484
4 499 10 28 10 35 47 14 68 -9 9 -136 12 -510 12 l-498 0 -12 -26z"/>
<path d="M2802 2358 c-15 -15 -15 -41 0 -56 9 -9 136 -12 509 -12 536 0 525
-1 517 52 l-3 23 -505 3 c-385 2 -509 -1 -518 -10z"/>
<path d="M2806 2084 c-9 -8 -16 -22 -16 -29 0 -7 7 -21 16 -29 14 -14 73 -16
500 -16 316 0 492 4 505 10 21 12 25 50 7 68 -9 9 -135 12 -504 12 -434 0
-494 -2 -508 -16z"/>
</g>
</svg>
